<?xml version="1.0" encoding="utf-8"?>
<!-- Generator: Adobe Illustrator 27.0.0, SVG Export Plug-In . SVG Version: 6.00 Build 0)  -->
<svg version="1.1" xmlns="http://www.w3.org/2000/svg" xmlns:xlink="http://www.w3.org/1999/xlink" x="0px" y="0px"
	 viewBox="0 0 216 216" style="enable-background:new 0 0 216 216;" xml:space="preserve">
<style type="text/css">
	.st0{fill:#FFFFFF;}
	.st1{fill:none;stroke:#000000;stroke-width:5;stroke-miterlimit:10;}
	.st2{display:none;}
</style>
<g id="logo">
	<g>
		<circle class="st0" cx="107.4" cy="107.6" r="99.4"/>
		<path d="M107.4,10.1c53.7,0,97.4,43.7,97.4,97.4S161.1,205,107.4,205S9.9,161.3,9.9,107.6S53.6,10.1,107.4,10.1 M107.4,6.1
			C51.3,6.1,5.9,51.6,5.9,107.6S51.3,209,107.4,209s101.4-45.4,101.4-101.4S163.4,6.1,107.4,6.1L107.4,6.1z"/>
	</g>
	<g>
		<path d="M92.7,91.9c16.7-11.4,17.4-36.1,8.6-52.6C95.6,28.7,84.1,23.2,72.6,22c-2-0.3-4.2-0.3-6.2-0.3c-4.6,0.2-9,3-12.7,5.7
			C46,33.2,39.4,40.6,33.5,48.2c-5.9,7.7-11.3,16-15.5,24.7c-7.6,15.3-5.5,26,12.4,30.2c10.5,2.5,21.7,2.6,32.6,2.5
			c29.3-2,44.8,18.8,47.3,46c0.7,18.6-2.4,48.4-25.1,52c-5.4,0.8-10.8-0.2-15.7-1.6c-19.9-5.7-35.5-21.1-45.8-38.5
			c-2.8-4.7-5.3-9.5-7.3-14.7c3.8-7.4,10.7-12.9,18.3-16.2c10.8-4.5,22.8-4.6,34.1-2c13,3.3,17.5,12.1,17.6,25
			c0.7,15-16.7,21.6-29.2,18.5c-4-0.8-7.5-3-10.2-5.9c-5.4-5.5-7.7-17.1,1.5-20c5.3-1.4,12.4-0.9,15.2,4.5c0.9,1.7,1.3,3.5,1.3,5.4
			c-0.2-6-5-9.8-10.8-9.3c-11.9,0.1-12.3,10.5-5.2,17.5c8.9,9,30,5.2,32.1-8.1c0.7-11.2-1.8-19.7-13.7-22.6
			c-16.3-4-36.9-0.8-46.1,14.6c0,0,0.1-2,0.1-2c3.6,8.8,8.8,17.3,14.8,24.7c9,11.2,20.8,20.4,34.7,24.4c4.4,1.3,9.1,2.1,13.6,1.4
			c14.8-2.2,19.1-19.4,20.4-32.3c1.1-9.5,0.7-19.2-2.3-28.4c-2.8-8.9-7.9-17.3-15.9-22.3c-6.9-4.5-15.5-5.6-23.6-5.1
			c-6.2,0.1-12.5,0.1-18.8-0.4c-19.6-1.2-42-7.8-33.8-32.3c6-18.1,36.1-61.9,56.8-61.2c15.8,0,30.1,6.1,37.3,20.8
			C113,55.3,110.9,81.2,92.7,91.9L92.7,91.9z"/>
	</g>
	<path class="st1" d="M119,8.6c-6,26.3-11.3,60.7-11.1,100.9c0.2,38,5.3,70.5,11.1,95.9"/>
	<g>
		<path d="M194.4,58.4c1.8,4.1,3.4,8.2,4.7,12.4c0.5,4.3,1.1,8.6,1.5,13c1.9,17.3,1.5,35-0.7,52.2c-0.4,3.1-0.8,6.6-1.3,9.7
			c-0.2,1.1-0.1,2.2-0.6,3.2c-1,3.1-2.1,6.3-3.4,9.3c-0.5,1-0.9,2.1-1.6,3c0.5-4.3,0.2-8.7,0.2-13c-0.1-1.1,0.3-2.1,0.4-3.2
			c0.4-3.1,0.9-6.5,1.2-9.6c2.2-17.1,2.6-34.1,0.7-51.1c-0.3-3.6-0.8-7.5-1.3-11.1c-0.1-0.5-0.2-1-0.3-1.6
			C194,67.2,194.1,62.8,194.4,58.4L194.4,58.4z"/>
	</g>
	<path class="st1" d="M107.9,107c8.1-3.4,86.1-4.4,91.4,0"/>
</g>
<g id="grid" class="st2">
</g>
</svg>
