<?xml version="1.0" encoding="utf-8"?>
<!-- Generator: Adobe Illustrator 28.2.0, SVG Export Plug-In . SVG Version: 6.00 Build 0)  -->
<svg version="1.1" xmlns="http://www.w3.org/2000/svg" xmlns:xlink="http://www.w3.org/1999/xlink" x="0px" y="0px"
	 viewBox="0 0 612.86 612" style="enable-background:new 0 0 612.86 612;" xml:space="preserve">
<style type="text/css">
	.st0{fill:none;stroke:#000000;stroke-width:2.6262;stroke-miterlimit:10;}
	.st1{fill:none;stroke:#000000;stroke-width:0.6566;stroke-miterlimit:10;}
	.st2{fill:none;stroke:#000000;stroke-width:2.2163;stroke-miterlimit:10;}
	.st3{fill:none;stroke:#000000;stroke-width:3.9393;stroke-miterlimit:10;}
	.st4{fill:none;stroke:#000000;stroke-width:1.4706;stroke-miterlimit:10;}
	.st5{fill:none;stroke:#000000;stroke-width:0.3676;stroke-miterlimit:10;}
	.st6{fill:none;stroke:#000000;stroke-width:1.2411;stroke-miterlimit:10;}
	.st7{fill:none;stroke:#000000;stroke-width:2.2059;stroke-miterlimit:10;}
	.st8{fill:none;stroke:#000000;stroke-width:2;stroke-miterlimit:10;}
	.st9{fill:none;stroke:#000000;stroke-width:3;stroke-miterlimit:10;}
	.st10{fill:none;stroke:#000000;stroke-width:0.3596;stroke-miterlimit:10;}
	.st11{fill:none;stroke:#000000;stroke-width:1.4384;stroke-miterlimit:10;}
	.st12{fill:none;stroke:#000000;stroke-width:2.1575;stroke-miterlimit:10;}
	.st13{fill:none;stroke:#3B8377;stroke-width:1.496;stroke-miterlimit:10;}
	.st14{fill:none;stroke:#3B8377;stroke-width:1.2411;stroke-miterlimit:10;}
	.st15{fill:#3B8377;}
	.st16{fill:none;stroke:#3B8377;stroke-width:2.9745;stroke-miterlimit:10;}
	.st17{fill:none;stroke:#000000;stroke-width:0.3651;stroke-miterlimit:10;}
	.st18{fill:none;stroke:#3B8377;stroke-width:2.2309;stroke-miterlimit:10;}
	.st19{fill:none;stroke:#000000;stroke-width:3.0985;stroke-miterlimit:10;}
	.st20{fill:#9BD7D0;}
	.st21{fill:#FFFFFF;}
	.st22{fill:none;stroke:#000000;stroke-width:0.8565;stroke-miterlimit:10;}
	.st23{fill:none;stroke:#000000;stroke-width:0.8557;stroke-miterlimit:10;}
	.st24{fill:none;stroke:#000000;stroke-width:0.2139;stroke-miterlimit:10;}
	.st25{fill:none;stroke:#000000;stroke-width:0.7221;stroke-miterlimit:10;}
	.st26{fill:none;stroke:#000000;stroke-width:1.2836;stroke-miterlimit:10;}
	.st27{fill:none;stroke:#3B8377;stroke-width:2.9892;stroke-miterlimit:10;}
	.st28{fill:none;stroke:#000000;stroke-width:2.9892;stroke-miterlimit:10;}
	.st29{fill:none;stroke:#000000;stroke-width:2.2419;stroke-miterlimit:10;}
	.st30{fill:none;stroke:#000000;stroke-width:0.3669;stroke-miterlimit:10;}
	.st31{fill:none;stroke:#3B8377;stroke-width:2.2419;stroke-miterlimit:10;}
	.st32{fill:none;stroke:#000000;stroke-width:3.7365;stroke-miterlimit:10;}
	.st33{fill:#5FA9A0;}
	.st34{fill:none;stroke:#3B8377;stroke-width:0.75;stroke-miterlimit:10;}
	.st35{fill:none;stroke:#000000;stroke-width:0.9683;stroke-miterlimit:10;}
	.st36{fill:none;stroke:#000000;stroke-width:0.6455;stroke-miterlimit:10;}
	.st37{fill:none;stroke:#000000;stroke-width:0.1614;stroke-miterlimit:10;}
	.st38{fill:none;stroke:#3B8377;stroke-width:0.5448;stroke-miterlimit:10;}
	.st39{fill:none;stroke:#000000;stroke-width:0.9968;stroke-miterlimit:10;}
	.st40{fill:none;stroke:#000000;stroke-width:0.9799;stroke-miterlimit:10;}
	.st41{fill:none;stroke:#000000;stroke-width:0.245;stroke-miterlimit:10;}
	.st42{fill:none;stroke:#000000;stroke-width:0.8269;stroke-miterlimit:10;}
	.st43{fill:none;stroke:#010101;stroke-width:1.5;stroke-miterlimit:10;}
	.st44{fill:#010101;}
	.st45{fill:none;stroke:#010101;stroke-width:0.8449;stroke-miterlimit:10;}
	.st46{fill:none;stroke:#010101;stroke-width:2.2406;stroke-miterlimit:10;}
	.st47{fill:none;stroke:#010101;stroke-width:1.2537;stroke-miterlimit:10;}
	.st48{fill:none;stroke:#3B8377;stroke-width:2;stroke-miterlimit:10;}
	.st49{fill:none;stroke:#000000;stroke-width:1.3361;stroke-miterlimit:10;}
	.st50{fill:none;stroke:#000000;stroke-width:0.334;stroke-miterlimit:10;}
	.st51{fill:none;stroke:#3B8377;stroke-width:1.1275;stroke-miterlimit:10;}
	.st52{fill:#D1D3D4;}
	.st53{fill:none;stroke:#000000;stroke-width:0.8411;stroke-miterlimit:10;}
	.st54{fill:none;stroke:#000000;stroke-width:0.8268;stroke-miterlimit:10;}
	.st55{fill:none;stroke:#000000;stroke-width:0.2067;stroke-miterlimit:10;}
	.st56{fill:none;stroke:#000000;stroke-width:0.6978;stroke-miterlimit:10;}
	.st57{fill:none;stroke:#000000;stroke-width:1.6877;stroke-miterlimit:10;}
	.st58{fill:none;stroke:#010101;stroke-width:1.2657;stroke-miterlimit:10;}
	.st59{fill:none;stroke:#010101;stroke-width:0.7129;stroke-miterlimit:10;}
	.st60{fill:none;stroke:#010101;stroke-width:1.8884;stroke-miterlimit:10;}
	.st61{fill:none;stroke:#010101;stroke-width:1.0566;stroke-miterlimit:10;}
	.st62{fill:none;stroke:#3B8377;stroke-width:1.6856;stroke-miterlimit:10;}
	.st63{fill:none;stroke:#000000;stroke-width:1.126;stroke-miterlimit:10;}
	.st64{fill:none;stroke:#000000;stroke-width:0.2815;stroke-miterlimit:10;}
	.st65{fill:none;stroke:#3B8377;stroke-width:0.9503;stroke-miterlimit:10;}
	.st66{fill:none;stroke:#000000;stroke-width:2.5284;stroke-miterlimit:10;}
	.st67{fill:none;stroke:#3B8377;stroke-width:0.6321;stroke-miterlimit:10;}
	.st68{fill:none;stroke:#000000;stroke-width:0.8161;stroke-miterlimit:10;}
	.st69{fill:none;stroke:#000000;stroke-width:0.5441;stroke-miterlimit:10;}
	.st70{fill:none;stroke:#000000;stroke-width:0.136;stroke-miterlimit:10;}
	.st71{fill:none;stroke:#3B8377;stroke-width:0.4591;stroke-miterlimit:10;}
	.st72{fill:none;stroke:#000000;stroke-width:1.6856;stroke-miterlimit:10;}
	.st73{fill:none;stroke:#000000;stroke-width:0.7219;stroke-miterlimit:10;}
	.st74{fill:none;stroke:#000000;stroke-width:0.7212;stroke-miterlimit:10;}
	.st75{fill:none;stroke:#000000;stroke-width:0.1803;stroke-miterlimit:10;}
	.st76{fill:none;stroke:#000000;stroke-width:0.6086;stroke-miterlimit:10;}
	.st77{fill:none;stroke:#000000;stroke-width:1.0818;stroke-miterlimit:10;}
	.st78{fill:none;stroke:#3B8377;stroke-width:5.627;stroke-miterlimit:10;}
	.st79{fill:none;stroke:#000000;stroke-width:5.627;stroke-miterlimit:10;}
	.st80{fill:none;stroke:#000000;stroke-width:4.2202;stroke-miterlimit:10;}
	.st81{fill:none;stroke:#000000;stroke-width:0.6906;stroke-miterlimit:10;}
	.st82{fill:none;stroke:#3B8377;stroke-width:4.2202;stroke-miterlimit:10;}
	.st83{fill:none;stroke:#000000;stroke-width:7.0337;stroke-miterlimit:10;}
	.st84{fill:none;stroke:#000000;stroke-width:0.7364;stroke-miterlimit:10;}
	.st85{fill:none;stroke:#000000;stroke-width:0.7239;stroke-miterlimit:10;}
	.st86{fill:none;stroke:#000000;stroke-width:0.181;stroke-miterlimit:10;}
	.st87{fill:none;stroke:#000000;stroke-width:0.6109;stroke-miterlimit:10;}
	.st88{fill:none;stroke:#000000;stroke-width:1.4776;stroke-miterlimit:10;}
	.st89{fill:none;stroke:#010101;stroke-width:1.1082;stroke-miterlimit:10;}
	.st90{fill:none;stroke:#010101;stroke-width:0.6242;stroke-miterlimit:10;}
	.st91{fill:none;stroke:#010101;stroke-width:1.6553;stroke-miterlimit:10;}
	.st92{fill:none;stroke:#010101;stroke-width:0.9262;stroke-miterlimit:10;}
	.st93{fill:none;stroke:#3B8377;stroke-width:1.4776;stroke-miterlimit:10;}
	.st94{fill:none;stroke:#000000;stroke-width:0.9871;stroke-miterlimit:10;}
	.st95{fill:none;stroke:#000000;stroke-width:0.2468;stroke-miterlimit:10;}
	.st96{fill:none;stroke:#3B8377;stroke-width:0.833;stroke-miterlimit:10;}
	.st97{fill:none;stroke:#000000;stroke-width:2.2164;stroke-miterlimit:10;}
	.st98{fill:none;stroke:#3B8377;stroke-width:0.5541;stroke-miterlimit:10;}
	.st99{fill:none;stroke:#000000;stroke-width:0.7154;stroke-miterlimit:10;}
	.st100{fill:none;stroke:#000000;stroke-width:0.4769;stroke-miterlimit:10;}
	.st101{fill:none;stroke:#000000;stroke-width:0.1192;stroke-miterlimit:10;}
	.st102{fill:none;stroke:#3B8377;stroke-width:0.4025;stroke-miterlimit:10;}
	.st103{fill:none;stroke:#000000;stroke-width:0.6328;stroke-miterlimit:10;}
	.st104{fill:none;stroke:#000000;stroke-width:0.6322;stroke-miterlimit:10;}
	.st105{fill:none;stroke:#000000;stroke-width:0.158;stroke-miterlimit:10;}
	.st106{fill:none;stroke:#000000;stroke-width:0.5335;stroke-miterlimit:10;}
	.st107{fill:none;stroke:#000000;stroke-width:0.9483;stroke-miterlimit:10;}
	.st108{fill:none;stroke:#000000;stroke-width:6.2403;stroke-miterlimit:10;}
	.st109{fill:none;stroke:#000000;stroke-width:4.6802;stroke-miterlimit:10;}
	.st110{fill:none;stroke:#000000;stroke-width:0.7659;stroke-miterlimit:10;}
	.st111{fill:none;stroke:#000000;stroke-width:7.8003;stroke-miterlimit:10;}
	.st112{fill:none;stroke:#000000;stroke-width:4.354;stroke-miterlimit:10;}
	.st113{fill:none;stroke:#000000;stroke-width:1.0885;stroke-miterlimit:10;}
	.st114{fill:none;stroke:#000000;stroke-width:3.6744;stroke-miterlimit:10;}
	.st115{fill:none;stroke:#000000;stroke-width:5.9215;stroke-miterlimit:10;}
	.st116{fill:none;stroke:#000000;stroke-width:8.8822;stroke-miterlimit:10;}
	.st117{fill:none;stroke:#000000;stroke-width:10.0555;stroke-miterlimit:10;}
	.st118{fill:none;stroke:#000000;stroke-width:1.2341;stroke-miterlimit:10;}
	.st119{fill:none;stroke:#000000;stroke-width:12.5694;stroke-miterlimit:10;}
	.st120{fill:none;stroke:#3B8377;stroke-miterlimit:10;}
	.st121{fill:none;stroke:#9BD7D0;stroke-miterlimit:10;}
	.st122{fill:none;stroke:#3B8377;stroke-width:0.8634;stroke-miterlimit:10;}
	.st123{fill:none;stroke:#9BD7D0;stroke-width:0.8634;stroke-miterlimit:10;}
</style>
<g id="First_attempt">
</g>
<g id="butter_fly_2">
</g>
<g id="pencil_2">
</g>
<g id="Business_cards">
	<g id="V1_00000141429225063945521680000006779752143961277879_">
	</g>
</g>
<g id="mood_board">
</g>
<g id="Thank_you_cards">
</g>
<g id="Envelope">
</g>
<g id="Letterhead">
</g>
<g id="one_page_1">
</g>
<g id="one_page_2">
</g>
<g id="one_page_3">
</g>
<g id="first_page">
	<g>
		<path class="st15" d="M321.03,115.76c0-9.54-7.76-17.31-17.31-17.31c-9.55,0-17.31,7.76-17.31,17.31c0,7.8,5.18,14.4,12.28,16.56
			v140.64h10.06V132.32C315.85,130.16,321.03,123.56,321.03,115.76z M303.72,125.53c-5.39,0-9.77-4.38-9.77-9.77
			s4.38-9.77,9.77-9.77s9.77,4.38,9.77,9.77S309.11,125.53,303.72,125.53z"/>
		<path class="st117" d="M210.43,527.88V364.73c40.66-17.56,45.28-55.45,45.28-55.45v-40.35l52.88,0"/>
		<line class="st118" x1="364.6" y1="382.36" x2="364.56" y2="382.36"/>
		<g>
			<path class="st15" d="M303.72,351.18c7.48,0,13.54,6.06,13.54,13.54c0,7.48-6.06,13.54-13.54,13.54s-13.54-6.06-13.54-13.54
				C290.18,357.24,296.25,351.18,303.72,351.18 M303.72,343.64c-11.62,0-21.08,9.46-21.08,21.08c0,11.62,9.46,21.08,21.08,21.08
				s21.08-9.46,21.08-21.08C324.8,353.09,315.35,343.64,303.72,343.64L303.72,343.64z"/>
		</g>
		<path d="M411.14,462.08l-37.75-70.08l0.11,0.04l-64.77-128.14l-3.55,0.03l-1.47,129.19l0.08,0.02v84.93
			c1.79-0.28,4.7,0.31,5.25,0.82v-84.57l19.62,4.44l17.43-16.86l16.59,6.14l41.81,77.62L411.14,462.08z"/>
		<circle class="st119" cx="306.43" cy="306" r="241.7"/>
		<g>
			<path d="M289.29,511.55l0.71-0.03c0.57,2.31,1.26,4.25,2.08,5.81c0.82,1.56,1.7,2.85,2.65,3.84s1.93,1.76,2.94,2.28
				c1.01,0.52,2.04,0.89,3.06,1.11c1.03,0.22,2,0.33,2.93,0.33c0.93,0,1.8-0.01,2.62-0.04c2.28-0.09,4.15-0.51,5.58-1.26
				c1.44-0.75,2.57-1.67,3.39-2.76c0.82-1.09,1.38-2.26,1.67-3.5c0.29-1.24,0.42-2.38,0.38-3.42c-0.06-1.51-0.39-2.79-1-3.85
				c-0.61-1.05-1.36-1.94-2.25-2.66c-0.89-0.72-1.86-1.3-2.89-1.73c-1.03-0.43-2.01-0.76-2.92-0.98l-7.53-1.96
				c-3.54-0.94-6.23-2.25-8.1-3.95c-1.86-1.69-2.85-4.03-2.98-7c-0.08-1.94,0.19-3.75,0.82-5.44c0.62-1.69,1.53-3.16,2.73-4.42
				c1.2-1.26,2.66-2.27,4.38-3.03c1.72-0.76,3.61-1.19,5.68-1.27c1.51-0.06,2.77,0.02,3.8,0.23c1.02,0.22,1.91,0.47,2.66,0.77
				c0.74,0.29,1.41,0.56,2.01,0.79c0.59,0.24,1.19,0.34,1.79,0.32c0.56-0.02,0.94-0.11,1.12-0.27c0.19-0.16,0.44-0.55,0.76-1.16
				l0.9-0.04l0.48,11.71l-0.78,0.03c-0.32-1.54-0.83-3.02-1.51-4.44c-0.69-1.42-1.54-2.66-2.58-3.72c-1.04-1.06-2.27-1.89-3.7-2.5
				c-1.43-0.61-3.07-0.88-4.92-0.8c-1.04,0.04-2.17,0.23-3.41,0.56c-1.24,0.33-2.38,0.86-3.43,1.6c-1.05,0.73-1.91,1.68-2.57,2.83
				c-0.67,1.15-0.97,2.59-0.89,4.31c0.05,1.38,0.38,2.54,0.98,3.49c0.6,0.95,1.36,1.74,2.27,2.37c0.91,0.63,1.93,1.15,3.04,1.56
				c1.12,0.41,2.24,0.76,3.38,1.06l7.93,2.14c0.83,0.23,1.88,0.53,3.15,0.91c1.27,0.38,2.51,0.98,3.73,1.79
				c1.22,0.81,2.28,1.91,3.18,3.3c0.9,1.39,1.39,3.18,1.48,5.38c0.08,2.03-0.22,3.97-0.9,5.84c-0.68,1.86-1.7,3.53-3.07,4.98
				c-1.37,1.46-3.05,2.65-5.04,3.58c-1.99,0.92-4.26,1.44-6.81,1.54c-0.9,0.04-1.7,0.06-2.39,0.06c-0.69,0.01-1.34-0.02-1.95-0.08
				c-0.61-0.06-1.22-0.13-1.82-0.22c-0.61-0.08-1.28-0.22-2.02-0.4c-0.88-0.22-1.82-0.49-2.82-0.79c-1.01-0.3-1.87-0.44-2.61-0.41
				c-0.65,0.03-1.08,0.17-1.31,0.44c-0.23,0.27-0.42,0.62-0.57,1.06l-0.97,0.04L289.29,511.55z"/>
			<path d="M328.2,495.08l4.89-0.96l-1.61-8.19c0.36,0.06,0.7,0.1,1.01,0.13c0.31,0.03,0.83-0.03,1.55-0.17
				c0.64-0.12,1.17-0.31,1.61-0.55c0.44-0.24,0.83-0.57,1.19-0.99l1.71,8.7l9.02-1.77l0.17,0.89l-9.02,1.77l4.08,20.77
				c0.23,1.19,0.54,2.13,0.92,2.82c0.38,0.7,0.8,1.21,1.26,1.53c0.46,0.33,0.93,0.51,1.4,0.55c0.47,0.04,0.92,0.02,1.34-0.07
				c1.48-0.29,2.57-1.07,3.27-2.32c0.7-1.26,1.04-2.61,1.02-4.06l0.95,0.14c-0.02,0.58-0.09,1.23-0.21,1.95
				c-0.12,0.73-0.39,1.45-0.79,2.17c-0.41,0.72-1,1.36-1.76,1.93c-0.77,0.57-1.79,0.98-3.06,1.23c-3.17,0.62-5.51,0.44-7-0.54
				c-1.49-0.98-2.46-2.6-2.9-4.84l-3.97-20.2l-4.89,0.96L328.2,495.08z"/>
			<path d="M392.48,505.8l-9.84,3.42l-2.15-6.18l-0.12,0.04c-0.08,0.94-0.23,1.92-0.45,2.93c-0.22,1.01-0.59,1.99-1.11,2.92
				c-0.52,0.93-1.21,1.79-2.05,2.56c-0.85,0.77-1.95,1.4-3.29,1.86c-1.63,0.57-3.02,0.85-4.17,0.83c-1.14-0.01-2.08-0.12-2.79-0.33
				c-0.36-0.1-0.76-0.25-1.21-0.44c-0.46-0.18-0.92-0.49-1.38-0.92c-0.47-0.43-0.95-1.03-1.45-1.79c-0.5-0.76-0.95-1.76-1.38-2.98
				l-6.04-17.36l-4.71,1.64l-0.3-0.86l9.97-3.47l6.53,18.77c0.37,1.06,0.78,2.01,1.24,2.86c0.45,0.85,1,1.54,1.64,2.07
				c0.64,0.53,1.36,0.88,2.14,1.04c0.78,0.16,1.71,0.06,2.77-0.31c0.9-0.31,1.73-0.9,2.51-1.76c0.77-0.86,1.39-1.92,1.84-3.18
				c0.45-1.25,0.71-2.66,0.76-4.21c0.05-1.55-0.21-3.18-0.81-4.89l-4.94-14.18l-4.65,1.62l-0.3-0.86l9.9-3.45l8.83,25.37l4.71-1.64
				L392.48,505.8z"/>
			<path d="M398.11,452.6l6.93-1.96l22.27,38.02l2.16-1.22l0.44,0.79l-9.07,5.13l-2.77-4.91l-0.11,0.06
				c0.11,0.54,0.19,1.21,0.25,2.02c0.06,0.81-0.03,1.68-0.28,2.61c-0.24,0.93-0.68,1.86-1.32,2.79c-0.64,0.93-1.6,1.76-2.88,2.48
				c-1.65,0.93-3.42,1.46-5.31,1.59c-1.89,0.12-3.73-0.1-5.54-0.66c-1.81-0.57-3.48-1.44-5.01-2.63c-1.54-1.19-2.8-2.65-3.77-4.37
				c-0.96-1.69-1.55-3.49-1.78-5.39c-0.23-1.9-0.12-3.73,0.32-5.49c0.44-1.76,1.18-3.39,2.22-4.89c1.04-1.5,2.36-2.71,3.98-3.62
				c2.07-1.17,4.03-1.6,5.88-1.31c1.85,0.29,3.45,1.02,4.81,2.19l0.11-0.06l-5.08-8.13L398.11,452.6z M399.36,488.47
				c1.1,1.95,2.17,3.7,3.18,5.23c1.02,1.54,2.07,2.74,3.16,3.61c1.09,0.87,2.25,1.36,3.49,1.45c1.24,0.09,2.63-0.3,4.17-1.17
				c1.58-0.89,2.65-1.95,3.23-3.16c0.58-1.22,0.83-2.51,0.75-3.88c-0.08-1.37-0.4-2.76-0.95-4.18c-0.56-1.42-1.18-2.75-1.88-3.99
				c-0.83-1.47-1.57-2.72-2.23-3.76c-0.66-1.04-1.3-1.93-1.92-2.67s-1.23-1.34-1.83-1.79c-0.6-0.45-1.24-0.84-1.91-1.15
				c-0.99-0.43-2.07-0.64-3.25-0.62c-1.18,0.02-2.46,0.42-3.85,1.21c-1.31,0.74-2.25,1.62-2.8,2.62c-0.55,1-0.78,2.13-0.7,3.37
				c0.08,1.24,0.42,2.6,1,4.08C397.6,485.14,398.38,486.74,399.36,488.47z"/>
			<path d="M413.93,443.8c-0.57-0.76-0.79-1.6-0.67-2.54c0.13-0.94,0.57-1.69,1.33-2.26c0.76-0.57,1.6-0.79,2.54-0.67
				c0.94,0.13,1.69,0.57,2.26,1.33c0.58,0.76,0.8,1.6,0.67,2.54c-0.13,0.94-0.57,1.69-1.33,2.27c-0.76,0.57-1.6,0.79-2.54,0.66
				C415.26,445,414.51,444.56,413.93,443.8z M435.9,479.78l3.98-3.01l-15.67-20.69l-3.97,3.01l-0.55-0.72l8.41-6.37l16.22,21.42
				l3.97-3.01l0.55,0.72l-12.38,9.38L435.9,479.78z"/>
			<path d="M445.8,456.09c-1.48-1.51-2.53-3.23-3.13-5.18c-0.61-1.94-0.86-3.89-0.75-5.84c0.1-1.95,0.54-3.82,1.31-5.6
				c0.76-1.78,1.76-3.27,2.99-4.48c1.23-1.21,2.74-2.18,4.53-2.92c1.79-0.73,3.66-1.13,5.62-1.21c1.95-0.07,3.9,0.21,5.83,0.85
				c1.93,0.64,3.64,1.72,5.12,3.22c1.42,1.45,2.45,3.11,3.09,4.99c0.64,1.88,0.93,3.79,0.87,5.73c-0.06,1.94-0.47,3.82-1.22,5.64
				c-0.75,1.82-1.8,3.4-3.15,4.73c-1.35,1.33-2.95,2.36-4.79,3.07c-1.84,0.72-3.72,1.09-5.66,1.12c-1.94,0.03-3.84-0.29-5.71-0.96
				C448.87,458.6,447.23,457.54,445.8,456.09z M450.42,451.55c2.15,2.19,4.02,3.76,5.64,4.72c1.61,0.96,3.03,1.51,4.26,1.66
				c1.24,0.15,2.33-0.03,3.28-0.54c0.95-0.51,1.84-1.17,2.67-1.99c0.83-0.82,1.51-1.7,2.04-2.64c0.53-0.94,0.73-2.03,0.6-3.27
				c-0.13-1.24-0.66-2.67-1.59-4.29c-0.93-1.63-2.47-3.53-4.62-5.72c-1.81-1.85-3.46-3.27-4.93-4.28c-1.47-1-2.85-1.65-4.13-1.94
				c-1.28-0.28-2.47-0.22-3.57,0.2c-1.1,0.42-2.18,1.14-3.23,2.17c-1.04,1.03-1.79,2.09-2.22,3.18c-0.43,1.1-0.52,2.28-0.26,3.57
				c0.26,1.28,0.88,2.67,1.86,4.16C447.21,448.04,448.6,449.71,450.42,451.55z"/>
			<path d="M476.62,431.01l0.43-0.57c1.01,0.38,2.08,0.7,3.21,0.96c1.13,0.26,2.29,0.33,3.47,0.23c1.19-0.11,2.36-0.46,3.5-1.05
				c1.15-0.59,2.21-1.55,3.2-2.86c0.83-1.1,1.23-2.34,1.21-3.71c-0.03-1.37-0.79-2.62-2.31-3.76c-1.31-0.98-2.48-1.34-3.52-1.07
				c-1.04,0.27-2.05,0.74-3.04,1.4l-4.43,2.98c-0.56,0.39-1.2,0.79-1.91,1.2c-0.71,0.41-1.5,0.7-2.35,0.87
				c-0.85,0.17-1.77,0.14-2.74-0.07c-0.97-0.22-2.02-0.75-3.16-1.61c-0.96-0.73-1.72-1.59-2.26-2.59c-0.54-1-0.88-2.06-1.01-3.18
				c-0.13-1.12-0.02-2.27,0.32-3.44c0.34-1.17,0.92-2.3,1.72-3.36c0.57-0.76,1.09-1.33,1.56-1.7c0.47-0.37,0.9-0.69,1.28-0.94
				c0.38-0.25,0.74-0.47,1.06-0.66c0.33-0.18,0.64-0.47,0.92-0.85c0.29-0.38,0.36-0.76,0.21-1.14l0.43-0.57l5.9,4.43l-0.43,0.57
				c-0.94-0.33-1.88-0.6-2.82-0.83c-0.94-0.22-1.85-0.32-2.72-0.31c-0.88,0.02-1.71,0.23-2.5,0.63c-0.79,0.4-1.51,1.04-2.16,1.9
				c-1.25,1.66-1.84,3.22-1.79,4.69c0.06,1.47,0.7,2.67,1.94,3.61c1.11,0.83,2.23,1.07,3.39,0.72c1.15-0.35,2.54-1.1,4.16-2.25
				l4.08-2.84c1.77-1.21,3.53-1.96,5.27-2.27c1.74-0.31,3.41,0.13,5,1.33c0.93,0.7,1.71,1.57,2.33,2.6
				c0.62,1.04,1.01,2.16,1.15,3.37c0.14,1.21,0.04,2.48-0.31,3.81c-0.35,1.33-1.02,2.65-2.01,3.96c-0.57,0.76-1.17,1.4-1.81,1.92
				c-0.64,0.52-1.24,0.98-1.82,1.39c-0.57,0.41-1.11,0.77-1.6,1.11c-0.49,0.33-0.88,0.69-1.16,1.07c-0.29,0.38-0.42,0.71-0.39,1
				c0.02,0.29,0.08,0.55,0.18,0.78l-0.43,0.57L476.62,431.01z"/>
		</g>
		<g>
			<path d="M115.62,277.83l0.19-0.68c2.37,0.18,4.43,0.12,6.17-0.17c1.74-0.29,3.24-0.73,4.48-1.32c1.24-0.59,2.27-1.28,3.08-2.09
				c0.81-0.8,1.48-1.66,2-2.56c0.52-0.9,0.94-1.8,1.23-2.68c0.29-0.88,0.55-1.71,0.78-2.5c0.62-2.2,0.8-4.1,0.54-5.7
				c-0.26-1.6-0.79-2.96-1.57-4.08c-0.78-1.12-1.72-2.01-2.81-2.68c-1.09-0.67-2.13-1.14-3.13-1.42c-1.45-0.41-2.77-0.49-3.97-0.25
				c-1.19,0.25-2.27,0.68-3.23,1.31c-0.96,0.63-1.81,1.36-2.54,2.21c-0.73,0.85-1.35,1.67-1.84,2.47l-4.21,6.55
				c-1.99,3.07-4.08,5.23-6.27,6.47c-2.19,1.24-4.72,1.46-7.59,0.64c-1.87-0.53-3.51-1.35-4.92-2.47c-1.41-1.12-2.53-2.44-3.35-3.98
				c-0.82-1.53-1.32-3.24-1.52-5.11c-0.19-1.87,0-3.8,0.57-5.79c0.41-1.45,0.88-2.63,1.41-3.54c0.52-0.91,1.04-1.67,1.55-2.28
				c0.51-0.62,0.97-1.17,1.38-1.66c0.41-0.49,0.69-1.03,0.86-1.61c0.15-0.54,0.18-0.92,0.09-1.15c-0.09-0.23-0.38-0.59-0.87-1.09
				l0.25-0.87l11.27,3.19l-0.21,0.75c-1.57-0.17-3.13-0.16-4.69,0.05c-1.56,0.21-3.01,0.64-4.34,1.3c-1.33,0.66-2.51,1.57-3.53,2.73
				c-1.03,1.17-1.79,2.64-2.29,4.43c-0.28,1-0.46,2.14-0.53,3.42c-0.07,1.28,0.08,2.53,0.45,3.76c0.37,1.23,1,2.34,1.88,3.33
				c0.89,0.99,2.16,1.72,3.82,2.19c1.33,0.38,2.54,0.43,3.62,0.15c1.09-0.28,2.07-0.75,2.96-1.42c0.89-0.67,1.7-1.47,2.43-2.41
				c0.74-0.93,1.42-1.89,2.06-2.88l4.5-6.87c0.47-0.72,1.09-1.62,1.84-2.71c0.76-1.08,1.71-2.08,2.87-2.99
				c1.15-0.91,2.53-1.57,4.13-1.99c1.6-0.42,3.46-0.33,5.58,0.27c1.95,0.55,3.71,1.44,5.27,2.67c1.56,1.23,2.82,2.72,3.78,4.47
				c0.96,1.75,1.57,3.72,1.83,5.9c0.26,2.18,0.04,4.5-0.65,6.95c-0.25,0.87-0.47,1.64-0.68,2.3c-0.21,0.66-0.44,1.27-0.69,1.82
				c-0.25,0.56-0.51,1.11-0.78,1.66c-0.27,0.55-0.6,1.15-1.01,1.8c-0.48,0.76-1.03,1.57-1.63,2.43c-0.6,0.86-1,1.65-1.2,2.35
				c-0.18,0.62-0.17,1.08,0.01,1.38c0.19,0.3,0.46,0.59,0.83,0.87l-0.27,0.93L115.62,277.83z"/>
			<path d="M152.86,218.11c0.13,0.7,0.17,1.46,0.11,2.3c-0.06,0.84-0.34,1.76-0.85,2.76c-0.93,1.85-2,2.99-3.21,3.42
				c-1.21,0.43-2.6,0.44-4.18,0.03l-0.06,0.11c0.27,0.33,0.6,0.76,0.98,1.29c0.38,0.53,0.68,1.2,0.88,2c0.2,0.8,0.23,1.75,0.09,2.84
				c-0.14,1.09-0.57,2.35-1.28,3.78c-0.81,1.62-1.65,2.82-2.5,3.6c-0.85,0.78-1.68,1.31-2.5,1.57c-0.81,0.27-1.6,0.32-2.36,0.15
				c-0.76-0.17-1.43-0.39-2.01-0.69c-1.35-0.68-2.29-1.49-2.83-2.44c-0.54-0.95-0.83-1.97-0.87-3.09c-0.05-1.11,0.04-2.27,0.27-3.49
				c0.22-1.21,0.44-2.45,0.63-3.7c0.22-1.48,0.38-2.72,0.49-3.71c0.11-0.98,0.06-1.82-0.15-2.5c-0.21-0.69-0.61-1.29-1.2-1.8
				c-0.59-0.51-1.46-1.06-2.61-1.64c-0.93-0.46-1.78-0.83-2.57-1.08c-0.79-0.25-1.52-0.36-2.2-0.31c-0.68,0.05-1.3,0.29-1.86,0.73
				c-0.56,0.44-1.08,1.15-1.57,2.11c-0.64,1.27-0.95,2.44-0.92,3.49c0.03,1.05,0.54,1.83,1.54,2.33c0.66,0.33,1.33,0.6,2.02,0.8
				c0.69,0.2,1.19,0.38,1.5,0.54c0.54,0.27,0.9,0.69,1.07,1.26c0.17,0.57,0.07,1.22-0.3,1.95c-0.64,1.27-1.27,1.95-1.89,2.02
				c-0.62,0.08-1.29-0.07-2.03-0.44c-0.85-0.43-1.56-1.03-2.14-1.8c-0.58-0.77-0.97-1.69-1.19-2.74c-0.22-1.05-0.22-2.23,0.01-3.55
				c0.22-1.31,0.7-2.7,1.44-4.17c0.89-1.77,1.86-3.15,2.91-4.12c1.05-0.97,2.13-1.63,3.25-1.99c1.12-0.35,2.23-0.45,3.33-0.28
				c1.1,0.17,2.17,0.51,3.21,1.04l14.4,7.25c1.12,0.56,1.96,0.77,2.52,0.62c0.56-0.15,1-0.56,1.33-1.21
				c0.21-0.42,0.36-0.91,0.44-1.45c0.08-0.54,0.07-1.1-0.02-1.68L152.86,218.11z M134.23,221.42l-0.06,0.11
				c0.46,0.33,0.65,1.22,0.54,2.67l-0.45,5.21c-0.12,1.49,0.11,2.79,0.68,3.9c0.58,1.11,1.54,2.01,2.89,2.69
				c0.58,0.29,1.2,0.53,1.88,0.73c0.67,0.19,1.33,0.26,1.97,0.19c0.64-0.06,1.25-0.3,1.84-0.7c0.59-0.4,1.11-1.05,1.55-1.94
				c0.64-1.27,0.89-2.44,0.75-3.5s-0.52-2-1.12-2.81c-0.6-0.81-1.34-1.52-2.22-2.13c-0.88-0.61-1.7-1.11-2.47-1.5L134.23,221.42z"/>
			<path d="M153.67,216.92l2.88-4.07l-21.18-15.01l-2.88,4.07l-0.74-0.52l6.03-8.5l5.33,3.78l0.08-0.11
				c-0.43-0.51-0.86-1.17-1.31-1.96c-0.44-0.79-0.78-1.69-0.99-2.69c-0.22-1-0.26-2.05-0.12-3.14c0.14-1.09,0.61-2.2,1.4-3.33
				c0.57-0.81,1.21-1.42,1.89-1.83c0.69-0.41,1.37-0.67,2.05-0.77c0.68-0.1,1.34-0.05,2,0.15c0.65,0.2,1.24,0.49,1.77,0.86
				c1.16,0.82,1.75,1.64,1.76,2.44c0.01,0.8-0.23,1.56-0.73,2.26c-1.1,1.55-2.14,1.97-3.13,1.27c-0.31-0.22-0.54-0.44-0.69-0.65
				c-0.14-0.21-0.28-0.42-0.41-0.65c-0.13-0.22-0.3-0.46-0.49-0.71c-0.2-0.24-0.52-0.53-0.98-0.85c-1.13-0.8-2.13-0.58-3,0.65
				c-0.4,0.56-0.61,1.31-0.64,2.24c-0.03,0.93,0.17,1.96,0.6,3.08c0.42,1.12,1.08,2.27,1.96,3.45c0.88,1.18,2.06,2.29,3.54,3.34
				l12.1,8.57l3.25-4.6l0.74,0.52l-9.36,13.21L153.67,216.92z"/>
			<path d="M189.14,174.97c-0.08,0.7-0.27,1.45-0.58,2.23c-0.31,0.78-0.85,1.58-1.63,2.39c-1.44,1.49-2.8,2.26-4.08,2.31
				c-1.28,0.05-2.62-0.35-4-1.22l-0.09,0.09c0.16,0.39,0.34,0.9,0.55,1.53c0.21,0.62,0.29,1.35,0.24,2.17
				c-0.05,0.83-0.3,1.74-0.76,2.74c-0.46,1-1.24,2.07-2.35,3.22c-1.26,1.3-2.42,2.2-3.46,2.69c-1.05,0.49-1.99,0.74-2.85,0.76
				c-0.85,0.02-1.62-0.17-2.3-0.56c-0.68-0.39-1.25-0.8-1.72-1.25c-1.08-1.05-1.75-2.11-1.97-3.17c-0.23-1.06-0.2-2.13,0.09-3.21
				c0.29-1.07,0.72-2.16,1.3-3.25c0.58-1.09,1.14-2.21,1.71-3.35c0.65-1.35,1.17-2.48,1.57-3.39c0.4-0.91,0.6-1.72,0.6-2.44
				c0-0.72-0.2-1.41-0.6-2.07c-0.41-0.66-1.08-1.45-2.01-2.35c-0.74-0.72-1.45-1.32-2.13-1.8c-0.68-0.48-1.35-0.79-2.01-0.95
				c-0.66-0.16-1.32-0.11-1.99,0.15c-0.66,0.26-1.38,0.77-2.13,1.55c-0.99,1.02-1.63,2.04-1.92,3.05c-0.29,1.01-0.03,1.91,0.78,2.69
				c0.53,0.51,1.09,0.97,1.69,1.37c0.6,0.4,1.03,0.72,1.28,0.96c0.43,0.42,0.65,0.93,0.64,1.52c-0.01,0.6-0.3,1.19-0.86,1.78
				c-0.99,1.03-1.79,1.48-2.4,1.37c-0.62-0.11-1.21-0.45-1.8-1.03c-0.68-0.66-1.18-1.45-1.51-2.36c-0.32-0.91-0.43-1.9-0.32-2.97
				c0.1-1.07,0.46-2.2,1.06-3.38c0.61-1.18,1.48-2.37,2.62-3.55c1.38-1.43,2.71-2.45,4-3.06c1.28-0.62,2.52-0.93,3.69-0.93
				c1.17,0,2.26,0.24,3.26,0.72c1,0.49,1.92,1.14,2.76,1.95l11.59,11.21c0.9,0.87,1.64,1.32,2.22,1.34
				c0.58,0.02,1.12-0.23,1.63-0.76c0.33-0.34,0.62-0.76,0.85-1.25c0.24-0.49,0.39-1.03,0.48-1.61L189.14,174.97z M170.37,172.57
				l-0.09,0.09c0.34,0.45,0.25,1.35-0.28,2.71l-1.98,4.84c-0.56,1.38-0.73,2.69-0.51,3.92c0.22,1.23,0.87,2.37,1.96,3.43
				c0.46,0.45,0.99,0.87,1.58,1.26c0.59,0.39,1.19,0.64,1.82,0.77c0.63,0.13,1.28,0.09,1.97-0.12c0.68-0.21,1.37-0.67,2.06-1.38
				c0.99-1.02,1.58-2.06,1.76-3.12c0.18-1.05,0.1-2.06-0.23-3.02c-0.33-0.96-0.83-1.86-1.49-2.7c-0.65-0.84-1.29-1.57-1.91-2.17
				L170.37,172.57z"/>
			<path d="M189.47,174.09l4.06-2.89l-25.97-36.59l-4.07,2.88l-0.52-0.74l8.6-6.11l14.73,20.75l0.1-0.08
				c-0.15-0.58-0.25-1.37-0.32-2.35c-0.06-0.99,0.05-2.04,0.33-3.17c0.29-1.13,0.79-2.28,1.52-3.46c0.73-1.18,1.81-2.28,3.26-3.3
				c2.32-1.65,4.61-2.43,6.87-2.34c2.26,0.09,4.26,1.37,6.01,3.83l10.94,15.42l4.06-2.89l0.52,0.74l-12.67,8.99l-0.53-0.74
				l4.07-2.89l-12.1-17.05c-0.97-1.37-2.1-2.27-3.37-2.69c-1.27-0.42-2.6-0.14-3.97,0.83c-1.13,0.8-2.02,1.81-2.7,3.03
				c-0.67,1.22-1.08,2.54-1.23,3.97c-0.15,1.43-0.02,2.9,0.39,4.41c0.41,1.51,1.11,2.97,2.11,4.38l8.47,11.93l4.06-2.89l0.52,0.74
				l-12.67,8.99L189.47,174.09z"/>
		</g>
		<g>
			<path d="M228.95,132.34l0.67-0.25c1.25,2.03,2.49,3.66,3.75,4.9c1.25,1.24,2.49,2.19,3.69,2.86c1.21,0.66,2.37,1.09,3.5,1.27
				c1.12,0.19,2.21,0.23,3.25,0.12c1.04-0.1,2.01-0.29,2.89-0.57c0.88-0.28,1.71-0.56,2.49-0.84c2.15-0.78,3.79-1.75,4.94-2.9
				c1.14-1.15,1.94-2.37,2.39-3.66c0.45-1.29,0.62-2.57,0.53-3.84c-0.09-1.28-0.32-2.4-0.68-3.37c-0.52-1.42-1.22-2.54-2.12-3.36
				c-0.89-0.82-1.88-1.44-2.95-1.85c-1.07-0.41-2.16-0.67-3.28-0.77c-1.12-0.1-2.14-0.11-3.08-0.05l-7.77,0.42
				c-3.65,0.18-6.62-0.25-8.91-1.3c-2.29-1.05-3.94-2.97-4.96-5.77c-0.66-1.82-0.96-3.64-0.88-5.43c0.08-1.8,0.5-3.48,1.26-5.04
				c0.76-1.56,1.85-2.97,3.25-4.22c1.4-1.25,3.08-2.23,5.03-2.93c1.42-0.52,2.65-0.83,3.69-0.93c1.04-0.1,1.96-0.13,2.76-0.08
				c0.8,0.06,1.52,0.1,2.15,0.15c0.64,0.04,1.24-0.04,1.81-0.25c0.53-0.19,0.86-0.39,0.99-0.6c0.13-0.21,0.25-0.65,0.37-1.34
				l0.85-0.31l4.01,11.01l-0.73,0.27c-0.78-1.37-1.71-2.63-2.79-3.77c-1.08-1.14-2.28-2.06-3.59-2.76
				c-1.31-0.69-2.74-1.12-4.29-1.26c-1.55-0.15-3.19,0.1-4.94,0.73c-0.97,0.36-2,0.88-3.08,1.57c-1.08,0.69-2.01,1.55-2.79,2.56
				c-0.78,1.02-1.31,2.18-1.59,3.48c-0.28,1.3-0.13,2.76,0.46,4.38c0.47,1.3,1.14,2.31,2,3.03c0.86,0.72,1.82,1.24,2.88,1.57
				c1.06,0.33,2.18,0.51,3.37,0.56c1.19,0.05,2.37,0.04,3.54-0.02l8.2-0.37c0.86-0.04,1.95-0.07,3.27-0.09
				c1.32-0.02,2.69,0.17,4.1,0.57c1.41,0.41,2.75,1.13,4.03,2.18c1.28,1.05,2.3,2.61,3.05,4.68c0.7,1.91,1,3.85,0.92,5.83
				c-0.08,1.98-0.55,3.88-1.41,5.68c-0.86,1.81-2.09,3.45-3.71,4.94c-1.62,1.49-3.62,2.67-6.02,3.54c-0.85,0.31-1.61,0.57-2.26,0.79
				c-0.66,0.21-1.28,0.39-1.88,0.51c-0.6,0.12-1.2,0.24-1.8,0.35c-0.61,0.11-1.29,0.18-2.05,0.23c-0.9,0.05-1.87,0.09-2.92,0.1
				c-1.05,0.02-1.92,0.15-2.61,0.4c-0.61,0.22-0.98,0.5-1.12,0.82c-0.14,0.32-0.21,0.72-0.22,1.18l-0.91,0.33L228.95,132.34z"/>
			<path d="M270.88,132.2l4.9-0.93l-4.83-25.51l-4.9,0.93l-0.17-0.89l10.37-1.96l5,26.4l4.9-0.93l0.17,0.89l-15.27,2.89
				L270.88,132.2z M267.2,90.19c-0.18-0.93,0-1.79,0.53-2.57c0.53-0.78,1.27-1.26,2.2-1.44c0.93-0.18,1.79,0,2.57,0.53
				c0.78,0.53,1.26,1.27,1.44,2.2c0.18,0.93,0,1.79-0.53,2.57c-0.53,0.78-1.27,1.26-2.2,1.44c-0.93,0.18-1.79,0-2.57-0.53
				C267.86,91.86,267.38,91.13,267.2,90.19z"/>
			<path d="M353.59,133.22l-10.3-1.58l0.99-6.46l-0.13-0.02c-0.52,0.79-1.11,1.59-1.77,2.38c-0.67,0.79-1.45,1.48-2.35,2.06
				c-0.9,0.58-1.9,1.02-3.02,1.31c-1.11,0.29-2.38,0.32-3.78,0.11c-1.71-0.26-3.06-0.67-4.07-1.21c-1.01-0.55-1.78-1.08-2.31-1.6
				c-0.27-0.26-0.56-0.58-0.87-0.95c-0.32-0.37-0.58-0.86-0.79-1.46c-0.21-0.6-0.36-1.36-0.44-2.26c-0.08-0.91-0.02-2,0.18-3.28
				l2.8-18.17l-4.93-0.76l0.14-0.9l10.43,1.6l-3.02,19.65c-0.17,1.11-0.25,2.15-0.25,3.11s0.17,1.83,0.49,2.6
				c0.32,0.77,0.79,1.41,1.41,1.92c0.62,0.51,1.48,0.85,2.59,1.02c0.94,0.15,1.95,0.02,3.04-0.38c1.09-0.4,2.13-1.05,3.12-1.95
				c0.99-0.9,1.87-2.01,2.65-3.36c0.77-1.34,1.3-2.91,1.58-4.7l2.28-14.85l-4.86-0.75l0.14-0.9l10.37,1.6l-4.08,26.55l4.93,0.76
				L353.59,133.22z"/>
			<path d="M358.06,133.2l3.24,1.12l12.28-8.35l-4.51-16.43l-3.43-1.19l0.3-0.86l14.38,4.98l-0.3,0.86l-4.83-1.67l3.12,11.36
				l9.78-6.89l-4.53-1.57l0.3-0.86l8.99,3.12l-0.3,0.86l-3.24-1.12l-10.75,7.51l4.95,17.95l3.36,1.17l-0.3,0.86l-14.31-4.96
				l0.3-0.86l4.83,1.68l-3.56-12.88l-11.31,7.73l4.52,1.57l-0.3,0.86l-8.99-3.12L358.06,133.2z"/>
		</g>
	</g>
</g>
<g id="social_banner">
</g>
</svg>
